<?xml version="1.0" encoding="utf-8"?>
<!-- Generator: Adobe Illustrator 18.1.0, SVG Export Plug-In . SVG Version: 6.00 Build 0)  -->
<svg version="1.1" id="Layer_1" xmlns="http://www.w3.org/2000/svg" xmlns:xlink="http://www.w3.org/1999/xlink" x="0px" y="0px"
	 viewBox="1355.3 594.8 154 52" enable-background="new 1355.3 594.8 154 52" xml:space="preserve">
<g>
	<path fill="#FFFFFF" d="M1391,645.2h6.6v-34.5h-6.6V645.2z M1430,645.2h6.6v-34.5h-6.6V645.2z M1469.1,645.2h6.6v-34.5h-6.6V645.2z
		 M1358.3,604.1h32.6v-6.6h-32.6V604.1z M1397.4,604.1h32.6v-6.6h-32.6V604.1z M1436.4,604.1h32.6v-6.6h-32.6V604.1z M1475.7,604.1
		h32.6v-6.6h-32.6V604.1z"/>
	<path d="M1389,643.2h6.6v-34.5h-6.6V643.2z M1428,643.2h6.6v-34.5h-6.6V643.2z M1467.1,643.2h6.6v-34.5h-6.6V643.2z M1356.3,602.1
		h32.6v-6.6h-32.6V602.1z M1395.4,602.1h32.6v-6.6h-32.6V602.1z M1434.4,602.1h32.6v-6.6h-32.6V602.1z M1473.7,602.1h32.6v-6.6
		h-32.6V602.1z"/>
</g>
</svg>
